<svg id="Layer_1" data-name="Layer 1" xmlns="http://www.w3.org/2000/svg" xmlns:xlink="http://www.w3.org/1999/xlink" viewBox="0 0 512 512"><defs><linearGradient id="linear-gradient" x1="337.85" y1="218.79" x2="300.8" y2="44.44" gradientUnits="userSpaceOnUse"><stop offset="0" stop-color="#bbbdbf"/><stop offset="1" stop-color="#eaebec"/></linearGradient><linearGradient id="linear-gradient-2" x1="216.03" y1="305.74" x2="168.01" y2="79.83" xlink:href="#linear-gradient"/><linearGradient id="linear-gradient-3" x1="260.1" y1="467.17" x2="260.1" y2="176.49" xlink:href="#linear-gradient"/></defs><title>clouds</title><path d="M309,45.85a69.19,69.19,0,0,0-47.7,38.82c-53,12.15-88.6,53.63-80,93s59.56,61.93,113.19,50.08c27.56-5.93,50.67-20.15,65.49-37.93,14.52,11,35,15.7,56.3,11,34.67-7.7,57.78-37.93,51.26-67.56-6.52-29.33-40.3-47.11-75-39.41-.89.3-1.78.3-2.67.59C381,59.77,345.14,37.85,309,45.85Z" fill-rule="evenodd" fill="url(#linear-gradient)"/><path d="M310.77,52.67a66.58,66.58,0,0,0-45.93,37.63c-50.67,11.85-84.75,52.45-76.45,90.67.3,1.19.89,2.37,1.19,3.85-5.63-37.33,28.15-75.56,77-86.82a65.79,65.79,0,0,1,123.86,10.08c.59-.3,1.48-.3,2.37-.59,32-7.11,62.82,8.59,71.11,35.26a17.29,17.29,0,0,0-.59-3.85c-6.52-28.74-38.82-46.22-72.3-38.82-.89,0-1.48.3-2.37.3C379.81,66.59,345.44,45,310.77,52.67Z" fill="#f5f5f6" fill-rule="evenodd"/><path d="M178.32,79.63c-28.45,6.52-51,25.78-61.93,50.08-68.45,16-115,69.93-103.71,120.6C23.94,301.57,90,330.9,159.35,315.49c35.85-8,65.78-26.37,85-49.19,18.67,14.23,45.33,20.15,72.6,14.23,45.33-10.08,75.26-49.19,66.67-87.41-8.3-38.22-52.15-61.34-97.19-51.26-1.19.3-2.07.3-3.26.59C271.36,97.41,225.14,69.26,178.32,79.63Z" fill-rule="evenodd" fill="url(#linear-gradient-2)"/><path d="M180.69,88.52a85.49,85.49,0,0,0-59.56,48.89C55.65,152.52,11.2,205,22.16,254.75c.3,1.48.89,3.26,1.19,4.74-7.11-48,36.45-97.49,100.15-112.3a85,85,0,0,1,160.31,13c.89-.3,2.07-.59,3-.89,41.48-8.89,81.78,11.26,92.45,45.63-.29-1.48-.59-3.26-.89-4.74-8.3-37.33-50.37-60.15-93.63-50.67-1.19.3-2.07.59-3.26.89C270.17,106.3,225.43,78.74,180.69,88.52Z" fill="#f5f5f6" fill-rule="evenodd"/><path d="M245.58,177.12a114.92,114.92,0,0,1,91.86,45.63C427.81,223.93,501,278.46,501,345.42c0,67.26-74.67,122.38-165.93,122.38-47.41,0-89.78-14.52-120.3-37.93-19.56,22.82-51.56,37.93-87.41,37.93-59.56,0-108.15-40.89-108.15-91.26S67.79,285,127.35,285c1.48,0,2.67.29,4.15.29C133.87,225.41,184.24,177.12,245.58,177.12Z" fill-rule="evenodd" fill="url(#linear-gradient-3)"/><path d="M245.28,189a109.42,109.42,0,0,1,88.3,44.74c86.52.89,156.75,54.23,156.75,119.71a48.53,48.53,0,0,1-.29,6.52c-4.44-62.52-72.89-112.6-156.46-113.49-20.15-27-52.15-44.74-88.3-44.74-59,0-107.26,47.11-109.63,105.78H131.8c-54.52,0-99.56,36.74-103.41,83a50.31,50.31,0,0,1-.3-6.52c0-49.18,46.52-89.48,103.71-89.48h3.85C138,236.08,186.32,189,245.28,189Z" fill="#f5f5f6" fill-rule="evenodd"/></svg>